<?xml version="1.0" encoding="UTF-8"?>
<svg width="472px" height="175px" viewBox="0 0 472 175" version="1.1" xmlns="http://www.w3.org/2000/svg" xmlns:xlink="http://www.w3.org/1999/xlink">
    <title>NYM</title>
    <g transform="translate(-152.000000, -715.000000)" fill="#abb1a8" fill-rule="nonzero">
        <path d="M185.44,890 L185.44,789.152 L184.384,759.056 L184.648,759.056 L199.696,787.568 L260.68,890 L302.392,890 L302.392,715.76 L269.656,715.76 L269.656,816.608 L270.712,846.704 L270.184,846.704 L255.136,817.928 L194.152,715.76 L152.704,715.76 L152.704,890 L185.44,890 Z M388.0815,890 L388.0815,824.792 L449.8575,715.76 L411.3135,715.76 L383.3295,767.768 L369.8655,795.224 L356.6655,767.768 L328.6815,715.76 L289.8735,715.76 L351.6495,824.792 L351.6495,890 L388.0815,890 Z M467.171,890 L467.171,799.184 L465.323,748.232 L465.851,748.232 L513.899,890 L543.731,890 L592.043,748.232 L592.571,748.232 L590.987,799.184 L590.987,890 L623.723,890 L623.723,715.76 L572.507,715.76 L541.355,811.064 L530.003,850.136 L529.475,850.136 L518.387,810.8 L486.971,715.76 L434.171,715.76 L434.171,890 L467.171,890 Z" id="NYM"></path>
    </g>
</svg>