<?xml version="1.0" encoding="UTF-8"?>
<svg width="473px" height="350px" viewBox="0 0 473 350" version="1.1" xmlns="http://www.w3.org/2000/svg" xmlns:xlink="http://www.w3.org/1999/xlink">
    <title>NYM_BLOCK</title>
    <g id="Page-1" stroke="none" stroke-width="1" fill="none" fill-rule="evenodd">
        <g id="Desktop-HD-Copy" transform="translate(-143.000000, -119.000000)" fill="#000000" fill-rule="nonzero">
            <g id="NYM_BLOCK" transform="translate(143.704000, 119.760000)">
                <polygon id="Path" points="32.736 174.24 32.736 73.392 31.68 43.296 31.944 43.296 46.992 71.808 107.976 174.24 149.688 174.24 149.688 0 116.952 0 116.952 100.848 118.008 130.944 117.48 130.944 102.432 102.168 41.448 0 5.68434189e-14 0 5.68434189e-14 174.24"></polygon>
                <polygon id="Path" points="235.3775 174.24 235.3775 109.032 297.1535 0 258.6095 0 230.6255 52.008 217.1615 79.464 203.9615 52.008 175.9775 0 137.1695 0 198.9455 109.032 198.9455 174.24"></polygon>
                <polygon id="Path" points="314.467 174.24 314.467 83.424 312.619 32.472 313.147 32.472 361.195 174.24 391.027 174.24 439.339 32.472 439.867 32.472 438.283 83.424 438.283 174.24 471.019 174.24 471.019 0 419.803 0 388.651 95.304 377.299 134.376 376.771 134.376 365.683 95.04 334.267 0 281.467 0 281.467 174.24"></polygon>
                <polygon id="Path" transform="translate(396.175000, 261.120000) rotate(180.000000) translate(-396.175000, -261.120000) " points="354.067 348.24 354.067 247.392 353.011 217.296 353.275 217.296 368.323 245.808 429.307 348.24 471.019 348.24 471.019 174 438.283 174 438.283 274.848 439.339 304.944 438.811 304.944 423.763 276.168 362.779 174 321.331 174 321.331 348.24"></polygon>
                <polygon id="Path" transform="translate(253.857500, 261.120000) rotate(180.000000) translate(-253.857500, -261.120000) " points="272.0735 348.24 272.0735 283.032 333.8495 174 295.3055 174 267.3215 226.008 253.8575 253.464 240.6575 226.008 212.6735 174 173.8655 174 235.6415 283.032 235.6415 348.24"></polygon>
                <polygon id="Path" transform="translate(94.776000, 261.120000) rotate(180.000000) translate(-94.776000, -261.120000) " points="33 348.24 33 257.424 31.152 206.472 31.68 206.472 79.728 348.24 109.56 348.24 157.872 206.472 158.4 206.472 156.816 257.424 156.816 348.24 189.552 348.24 189.552 174 138.336 174 107.184 269.304 95.832 308.376 95.304 308.376 84.216 269.04 52.8 174 -1.42108547e-13 174 -1.42108547e-13 348.24"></polygon>
            </g>
        </g>
    </g>
</svg>